<svg data-v-423bf9ae="" xmlns="http://www.w3.org/2000/svg" viewBox="0 0 444 90" class="iconLeft"><!----><!----><!----><g data-v-423bf9ae="" id="6d083da1-c5e1-40e5-9ac9-bf0e2d248bfc" fill="#FFFFFF" transform="matrix(4.622496310940746,0,0,4.622496310940746,122.64621500886918,2.0570093576908164)"><path d="M9.16 13.34L7.81 11.96L7.81 11.96Q6.77 12.74 5.20 12.74L5.20 12.74L5.20 12.74Q3.73 12.74 2.72 12.07L2.72 12.07L2.72 12.07Q1.71 11.40 1.21 10.27L1.21 10.27L1.21 10.27Q0.71 9.15 0.71 7.77L0.71 7.77L0.71 7.77Q0.71 6.40 1.21 5.27L1.21 5.27L1.21 5.27Q1.71 4.14 2.72 3.47L2.72 3.47L2.72 3.47Q3.73 2.80 5.20 2.80L5.20 2.80L5.20 2.80Q6.67 2.80 7.68 3.48L7.68 3.48L7.68 3.48Q8.69 4.15 9.19 5.28L9.19 5.28L9.19 5.28Q9.69 6.41 9.69 7.79L9.69 7.79L9.69 7.79Q9.69 8.76 9.43 9.64L9.43 9.64L9.43 9.64Q9.17 10.52 8.67 11.16L8.67 11.16L10.04 12.50L9.16 13.34ZM5.20 11.45L5.20 11.45Q6.17 11.45 6.84 11.03L6.84 11.03L5.50 9.72L6.36 8.89L7.69 10.19L7.69 10.19Q8.30 9.20 8.30 7.77L8.30 7.77L8.30 7.77Q8.30 6.75 7.97 5.92L7.97 5.92L7.97 5.92Q7.65 5.09 6.95 4.60L6.95 4.60L6.95 4.60Q6.25 4.10 5.20 4.10L5.20 4.10L5.20 4.10Q4.14 4.10 3.44 4.60L3.44 4.60L3.44 4.60Q2.75 5.09 2.42 5.92L2.42 5.92L2.42 5.92Q2.10 6.75 2.10 7.77L2.10 7.77L2.10 7.77Q2.10 8.80 2.42 9.63L2.42 9.63L2.42 9.63Q2.75 10.46 3.44 10.95L3.44 10.95L3.44 10.95Q4.14 11.45 5.20 11.45L5.20 11.45ZM13.95 12.75L13.95 12.75Q12.73 12.75 12.13 11.89L12.13 11.89L12.13 11.89Q11.53 11.04 11.53 9.57L11.53 9.57L11.53 5.78L12.87 5.78L12.87 9.63L12.87 9.63Q12.87 10.53 13.16 11.06L13.16 11.06L13.16 11.06Q13.45 11.59 14.21 11.59L14.21 11.59L14.21 11.59Q14.70 11.59 15.12 11.33L15.12 11.33L15.12 11.33Q15.54 11.07 15.79 10.54L15.79 10.54L15.79 10.54Q16.04 10.01 16.04 9.23L16.04 9.23L16.04 5.78L17.37 5.78L17.37 12.61L16.04 12.61L16.04 11.61L16.04 11.61Q15.74 12.11 15.18 12.43L15.18 12.43L15.18 12.43Q14.63 12.75 13.95 12.75L13.95 12.75ZM19.47 4.37L19.47 2.95L20.90 2.95L20.90 4.37L19.47 4.37ZM19.52 12.61L19.52 5.78L20.84 5.78L20.84 12.61L19.52 12.61ZM28.01 5.78L28.01 6.78L24.09 11.48L28.01 11.48L28.01 12.61L22.33 12.61L22.33 11.68L26.37 6.88L22.53 6.88L22.53 5.78L28.01 5.78ZM35.49 12.61L35.49 4.15L32.33 4.15L32.33 2.95L40.03 2.95L40.03 4.15L36.88 4.15L36.88 12.61L35.49 12.61ZM43.11 12.74L43.11 12.74Q42.43 12.74 41.90 12.49L41.90 12.49L41.90 12.49Q41.37 12.24 41.07 11.75L41.07 11.75L41.07 11.75Q40.77 11.27 40.77 10.61L40.77 10.61L40.77 10.61Q40.77 9.58 41.52 9.10L41.52 9.10L41.52 9.10Q42.27 8.62 43.64 8.62L43.64 8.62L45.30 8.62L45.30 8.62Q45.30 7.77 44.93 7.28L44.93 7.28L44.93 7.28Q44.55 6.79 43.78 6.79L43.78 6.79L43.78 6.79Q43.18 6.79 42.74 7.07L42.74 7.07L42.74 7.07Q42.30 7.36 42.02 7.79L42.02 7.79L41.03 7.05L41.03 7.05Q41.52 6.36 42.19 6.00L42.19 6.00L42.19 6.00Q42.85 5.63 43.74 5.63L43.74 5.63L43.74 5.63Q44.63 5.63 45.26 5.98L45.26 5.98L45.26 5.98Q45.89 6.34 46.22 6.97L46.22 6.97L46.22 6.97Q46.55 7.60 46.55 8.44L46.55 8.44L46.55 12.61L45.45 12.61L45.38 11.45L45.38 11.45Q44.99 12.13 44.41 12.43L44.41 12.43L44.41 12.43Q43.83 12.74 43.11 12.74L43.11 12.74ZM43.28 11.62L43.28 11.62Q43.85 11.62 44.31 11.33L44.31 11.33L44.31 11.33Q44.77 11.03 45.03 10.56L45.03 10.56L45.03 10.56Q45.29 10.10 45.30 9.60L45.30 9.60L43.74 9.60L43.74 9.60Q42.94 9.60 42.53 9.86L42.53 9.86L42.53 9.86Q42.13 10.13 42.13 10.65L42.13 10.65L42.13 10.65Q42.13 11.12 42.44 11.37L42.44 11.37L42.44 11.37Q42.75 11.62 43.28 11.62L43.28 11.62ZM48.51 12.61L48.51 5.78L49.83 5.78L49.83 6.78L49.83 6.78Q50.20 6.23 50.75 5.94L50.75 5.94L50.75 5.94Q51.30 5.65 51.94 5.65L51.94 5.65L51.94 5.65Q52.75 5.65 53.29 6.03L53.29 6.03L53.29 6.03Q53.82 6.42 54.07 7.06L54.07 7.06L54.07 7.06Q54.32 7.70 54.32 8.48L54.32 8.48L54.32 12.61L53.01 12.61L53.01 8.63L53.01 8.63Q53.01 7.86 52.65 7.35L52.65 7.35L52.65 7.35Q52.29 6.83 51.57 6.83L51.57 6.83L51.57 6.83Q50.78 6.83 50.31 7.37L50.31 7.37L50.31 7.37Q49.83 7.92 49.83 8.97L49.83 8.97L49.83 12.61L48.51 12.61ZM59.06 11.63L59.06 11.63Q59.94 11.76 60.49 11.92L60.49 11.92L60.49 11.92Q61.04 12.08 61.42 12.48L61.42 12.48L61.42 12.48Q61.80 12.89 61.80 13.61L61.80 13.61L61.80 13.61Q61.80 14.32 61.42 14.81L61.42 14.81L61.42 14.81Q61.04 15.30 60.39 15.54L60.39 15.54L60.39 15.54Q59.74 15.78 58.94 15.78L58.94 15.78L58.94 15.78Q58.02 15.78 57.32 15.48L57.32 15.48L57.32 15.48Q56.62 15.17 56.25 14.63L56.25 14.63L56.25 14.63Q55.88 14.09 55.88 13.41L55.88 13.41L55.88 13.41Q55.88 13.25 55.90 13.13L55.90 13.13L56.76 12.30L56.76 12.30Q55.98 11.85 55.98 10.93L55.98 10.93L55.98 10.93Q55.98 10.55 56.12 10.24L56.12 10.24L56.12 10.24Q56.25 9.93 56.55 9.67L56.55 9.67L56.55 9.67Q56.27 9.35 56.12 8.95L56.12 8.95L56.12 8.95Q55.97 8.55 55.97 8.10L55.97 8.10L55.97 8.10Q55.97 7.39 56.33 6.83L56.33 6.83L56.33 6.83Q56.69 6.28 57.30 5.97L57.30 5.97L57.30 5.97Q57.91 5.66 58.65 5.66L58.65 5.66L58.65 5.66Q59.13 5.66 59.56 5.80L59.56 5.80L59.56 5.80Q60.00 5.93 60.35 6.19L60.35 6.19L61.37 5.28L62.09 6.17L61.04 7.01L61.04 7.01Q61.31 7.52 61.31 8.16L61.31 8.16L61.31 8.16Q61.31 8.88 60.96 9.43L60.96 9.43L60.96 9.43Q60.61 9.97 60.01 10.27L60.01 10.27L60.01 10.27Q59.40 10.57 58.67 10.57L58.67 10.57L58.67 10.57Q57.97 10.57 57.38 10.29L57.38 10.29L57.38 10.29Q57.13 10.47 57.13 10.74L57.13 10.74L57.13 10.74Q57.13 11.04 57.37 11.21L57.37 11.21L57.37 11.21Q57.61 11.38 57.99 11.46L57.99 11.46L57.99 11.46Q58.36 11.54 59.06 11.63L59.06 11.63ZM58.67 6.69L58.67 6.69Q58.26 6.69 57.96 6.88L57.96 6.88L57.96 6.88Q57.65 7.07 57.49 7.39L57.49 7.39L57.49 7.39Q57.33 7.70 57.33 8.10L57.33 8.10L57.33 8.10Q57.33 8.72 57.69 9.10L57.69 9.10L57.69 9.10Q58.04 9.48 58.67 9.48L58.67 9.48L58.67 9.48Q59.28 9.48 59.64 9.10L59.64 9.10L59.64 9.10Q59.99 8.72 59.99 8.10L59.99 8.10L59.99 8.10Q59.99 7.70 59.83 7.38L59.83 7.38L59.83 7.38Q59.67 7.06 59.37 6.88L59.37 6.88L59.37 6.88Q59.07 6.69 58.67 6.69L58.67 6.69ZM58.99 14.69L58.99 14.69Q59.68 14.69 60.13 14.44L60.13 14.44L60.13 14.44Q60.58 14.19 60.58 13.74L60.58 13.74L60.58 13.74Q60.58 13.44 60.38 13.27L60.38 13.27L60.38 13.27Q60.18 13.10 59.85 13.03L59.85 13.03L59.85 13.03Q59.53 12.95 58.90 12.87L58.90 12.87L58.63 12.82L58.63 12.82Q58.00 12.73 57.61 12.64L57.61 12.64L57.03 13.44L57.03 13.44Q57.06 13.80 57.31 14.09L57.31 14.09L57.31 14.09Q57.55 14.37 57.99 14.53L57.99 14.53L57.99 14.53Q58.42 14.69 58.99 14.69L58.99 14.69ZM66.13 12.74L66.13 12.74Q65.15 12.74 64.38 12.26L64.38 12.26L64.38 12.26Q63.62 11.78 63.20 10.96L63.20 10.96L63.20 10.96Q62.77 10.14 62.77 9.17L62.77 9.17L62.77 9.17Q62.77 8.20 63.19 7.39L63.19 7.39L63.19 7.39Q63.62 6.58 64.38 6.11L64.38 6.11L64.38 6.11Q65.15 5.63 66.13 5.63L66.13 5.63L66.13 5.63Q67.11 5.63 67.88 6.11L67.88 6.11L67.88 6.11Q68.65 6.58 69.07 7.40L69.07 7.40L69.07 7.40Q69.50 8.21 69.50 9.17L69.50 9.17L69.50 9.17Q69.50 10.14 69.07 10.96L69.07 10.96L69.07 10.96Q68.65 11.78 67.88 12.26L67.88 12.26L67.88 12.26Q67.11 12.74 66.13 12.74L66.13 12.74ZM66.14 11.62L66.14 11.62Q66.81 11.62 67.26 11.28L67.26 11.28L67.26 11.28Q67.70 10.94 67.92 10.38L67.92 10.38L67.92 10.38Q68.13 9.83 68.13 9.17L68.13 9.17L68.13 9.17Q68.13 8.52 67.92 7.97L67.92 7.97L67.92 7.97Q67.70 7.42 67.26 7.09L67.26 7.09L67.26 7.09Q66.81 6.76 66.14 6.76L66.14 6.76L66.14 6.76Q65.47 6.76 65.02 7.09L65.02 7.09L65.02 7.09Q64.57 7.42 64.36 7.97L64.36 7.97L64.36 7.97Q64.14 8.52 64.14 9.17L64.14 9.17L64.14 9.17Q64.14 9.83 64.36 10.39L64.36 10.39L64.36 10.39Q64.57 10.94 65.02 11.28L65.02 11.28L65.02 11.28Q65.47 11.62 66.14 11.62L66.14 11.62Z"></path></g><!----><g data-v-423bf9ae="" id="5f93ad38-df33-4fce-bd3c-f1c67b6f573b" transform="matrix(1.114647235024805,0,0,1.114647235024805,-2.24842344843308,-10.107143381275776)" stroke="none" fill="#D78F69"><switch><g><circle cx="27.3" cy="18" r="8"></circle><path d="M34.9 55.8c.1.3 0-.3 0 0z"></path><path d="M97.4 85.3l-4-15c-.1-.3-.1-.7-.1-1.1l.2-12.9c2.1-19.9.9-24.5.4-25.5-.5-1.3-1.7-2.3-3.2-2.3h-9.3c-2.8 0-5.2 1-7.4 1.9-1.6.7-3.3 1.3-4.2 1.2-1.2-.3-6.1-2.8-9.9-5.1-1.2-.7-2.6-.6-3.6.1v-.1c-.7-1.7-2.7-2.6-4.5-1.9-1.7.7-6.4 2.6-8.5 3.1-2.7.6-7.7.7-11.3.7h-9.3c-4 0-9.4-1.3-10.8-2.3-.2-1.9.3-7.8 1-12.5.3-1.9-1-3.6-2.9-3.9-1.9-.3-3.6 1-3.9 2.9-2.2 14.3-.8 16.4-.2 17.2 2.3 3.4 9 4.8 13.3 5.2l.5 20C18.3 58.7 8.9 74.7 3.1 84.2c-1.2 1.9-.6 4.3 1.3 5.5 1.9 1.2 4.3.6 5.5-1.3 2.4-3.9 13.3-21.8 16.7-29.2-.9 6.3-3.5 18.5-5.3 26.3-.5 2.2.9 4.3 3 4.8.3.1.6.1.9.1 1.8 0 3.5-1.3 3.9-3.1.6-2.6 5.8-25.8 5.8-31.3l.3-20.6c3.4-.1 7-.3 9.5-.9 3-.7 8.9-3.1 9.6-3.4l.6-.3c.3.7.8 1.3 1.5 1.8 3.6 2.1 9.9 5.6 12.4 5.9.4.1.8.1 1.1.1 2.4 0 4.6-.9 6.6-1.7l1.5-.6.5 18.7-3.8 12.5c-.4 1.2-.5 2.5-.5 3.7l.4 15.1c.1 2.2 1.9 3.9 4.1 3.9 2.2-.1 3.9-1.9 3.9-4.1L82.1 71c0-.4 0-.8.2-1.2l3.2-10.4-.2 9.6c0 1.1.1 2.2.4 3.3l4 15c.5 1.8 2.1 3 3.9 3 .3 0 .7 0 1-.1 2.1-.6 3.3-2.8 2.8-4.9z"></path><circle cx="86" cy="18" r="8"></circle></g></switch></g><!----></svg>